<?xml version="1.0" encoding="utf-8"?>
<!-- Generator: Adobe Illustrator 19.0.0, SVG Export Plug-In . SVG Version: 6.00 Build 0)  -->
<svg version="1.1" id="katman_1" xmlns="http://www.w3.org/2000/svg" xmlns:xlink="http://www.w3.org/1999/xlink" x="0px" y="0px"
	 viewBox="-214 396.9 166 49" style="enable-background:new -214 396.9 166 49;" xml:space="preserve">
<style type="text/css">
	.st0{fill:#FFFFFF;}
	.st1{filter:url(#Adobe_OpacityMaskFilter);}
	.st2{mask:url(#b);fill:#FFFFFF;}
</style>
<g>
	<path class="st0" d="M-214,411v0.1l27.9,13.1l28.1-13.2v0l-28.1-13.2L-214,411z M-203.9,411.1l17.9-8.4l17.9,8.4l-17.9,8.4
		L-203.9,411.1L-203.9,411.1z M-186.1,429.4l-27.9-12.9v4.8l27.9,13l28.1-13v-4.8L-186.1,429.4z M-186.1,439.1l-27.9-12.9v4.8
		l27.9,13l28.1-13v-4.8L-186.1,439.1z"/>
	<g transform="translate(72)">
		<defs>
			<filter id="Adobe_OpacityMaskFilter" filterUnits="userSpaceOnUse" x="-214" y="396.9" width="94" height="48.3">
				<feColorMatrix  type="matrix" values="1 0 0 0 0  0 1 0 0 0  0 0 1 0 0  0 0 0 1 0"/>
			</filter>
		</defs>
		<mask maskUnits="userSpaceOnUse" x="-214" y="396.9" width="94" height="48.3" id="b">
			<g class="st1">
				<path id="a" class="st0" d="M-214,396.9h94v48.3h-94L-214,396.9z"/>
			</g>
		</mask>
		<path class="st2" d="M-126.4,421c0-2.1-0.8-4.1-2.2-5.6c-0.7-0.7-1.5-1.3-2.3-1.7c-0.9-0.4-1.9-0.6-2.8-0.6c-1,0-2,0.2-2.9,0.6
			c-0.9,0.4-1.7,1-2.3,1.7c-1.4,1.5-2.2,3.5-2.2,5.6c0,2.1,0.8,4.1,2.2,5.6c0.7,0.7,1.5,1.3,2.3,1.7c0.9,0.4,1.9,0.6,2.9,0.6
			c1,0,2-0.2,2.9-0.6c0.9-0.4,1.7-1,2.3-1.7C-127.2,425.1-126.4,423.1-126.4,421L-126.4,421z M-120,421c0,1.9-0.4,3.7-1.1,5.4
			c-0.7,1.6-1.7,3.1-2.9,4.3c-1.2,1.2-2.7,2.2-4.4,2.9c-1.7,0.7-3.5,1-5.4,1c-1.9,0-3.7-0.3-5.3-1c-1.6-0.7-3.1-1.6-4.4-2.9
			c-1.3-1.2-2.3-2.7-2.9-4.3c-0.7-1.6-1.1-3.4-1.1-5.3c0-1.9,0.4-3.6,1.1-5.3c0.7-1.6,1.7-3.1,3-4.3c1.3-1.2,2.7-2.2,4.4-2.9
			c1.7-0.7,3.5-1.1,5.3-1c1.9,0,3.7,0.4,5.4,1c1.7,0.7,3.1,1.6,4.4,2.9c1.2,1.2,2.2,2.6,2.9,4.3C-120.4,417.4-120,419.1-120,421z
			 M-149.7,433.8c-0.5,0.3-1.1,0.4-1.7,0.6c-0.6,0.1-1.3,0.2-2,0.2c-0.9,0-1.8-0.1-2.7-0.4c-0.8-0.2-1.6-0.7-2.3-1.2
			c-0.7-0.6-1.2-1.3-1.6-2.2c-0.4-0.9-0.6-2-0.6-3.3v-30.6h6.5v29.5c0,1.1,0.2,1.8,0.6,2.2c0.4,0.4,0.9,0.6,1.5,0.6
			c0.7,0,1.5-0.2,2.1-0.7C-149.7,428.5-149.7,433.8-149.7,433.8z M-163.5,408.1l-11.6,30.6c-0.9,2.3-2,3.9-3.4,5
			c-1.4,1-3.1,1.5-5,1.5c-0.3,0-0.6,0-1-0.1c-0.3,0-0.7-0.1-1-0.2l-2.1-6c0.5,0.2,1,0.4,1.6,0.6c0.5,0.1,1,0.2,1.5,0.2
			c1,0,1.9-0.2,2.8-0.7c0.8-0.5,1.5-1.3,1.9-2.6l0.9-2.6l-9.9-25.8h7l5.9,16.6l5.6-16.6L-163.5,408.1L-163.5,408.1z M-190.5,404.2
			h-16.8v8.3h16.5v5.6h-16.5v15.8h-6.8v-35.6h23.5L-190.5,404.2L-190.5,404.2z"/>
	</g>
</g>
</svg>
